<?xml version="1.0" encoding="UTF-8" standalone="no"?>
<!-- Created with Inkscape (http://www.inkscape.org/) -->

<svg
   xmlns:dc="http://purl.org/dc/elements/1.1/"
   xmlns:cc="http://creativecommons.org/ns#"
   xmlns:rdf="http://www.w3.org/1999/02/22-rdf-syntax-ns#"
   xmlns:svg="http://www.w3.org/2000/svg"
   xmlns="http://www.w3.org/2000/svg"
   xmlns:sodipodi="http://sodipodi.sourceforge.net/DTD/sodipodi-0.dtd"
   xmlns:inkscape="http://www.inkscape.org/namespaces/inkscape"
   id="svg3225"
   version="1.1"
   inkscape:version="0.48.4 r9939"
   width="31.999992"
   height="32.000004"
   sodipodi:docname="ШЕСТЕРНЯ.png">
  <metadata
     id="metadata3231">
    <rdf:RDF>
      <cc:Work
         rdf:about="">
        <dc:format>image/svg+xml</dc:format>
        <dc:type
           rdf:resource="http://purl.org/dc/dcmitype/StillImage" />
        <dc:title></dc:title>
      </cc:Work>
    </rdf:RDF>
  </metadata>
  <defs
     id="defs3229" />
  <sodipodi:namedview
     pagecolor="#ffffff"
     bordercolor="#666666"
     borderopacity="1"
     objecttolerance="10"
     gridtolerance="10"
     guidetolerance="10"
     inkscape:pageopacity="0"
     inkscape:pageshadow="2"
     inkscape:window-width="1366"
     inkscape:window-height="724"
     id="namedview3227"
     showgrid="false"
     width="32px"
     fit-margin-top="0"
     fit-margin-left="0"
     fit-margin-right="0"
     fit-margin-bottom="0"
     inkscape:zoom="16.437984"
     inkscape:cx="12.369196"
     inkscape:cy="16.159523"
     inkscape:window-x="-4"
     inkscape:window-y="21"
     inkscape:window-maximized="1"
     inkscape:current-layer="svg3225" />
  <path
     style="fill:#000000"
     d="m 13.089857,31.896507 c -0.03679,-0.05692 -0.0669,-0.809761 -0.0669,-1.672975 l 0,-1.569482 -0.289424,-0.07707 C 11.641393,28.286148 9.9678749,27.591281 9.1987169,27.109285 l -0.185775,-0.116417 -1.0144598,1.01327 -1.0144589,1.01327 -0.3716602,0 -0.3716603,0 -1.715129,-1.718702 -1.7151291,-1.718711 0,-0.373096 0,-0.373088 1.031248,-1.030044 1.0312479,-1.030035 -0.2891208,-0.517639 C 4.211063,21.590719 3.6826469,20.254212 3.5046457,19.528578 3.3073086,18.724115 3.4180437,18.772351 1.6945072,18.740045 -0.20859329,18.704365 -0.00756308,19.055988 0.01842632,15.808422 l 0.021822,-2.726921 1.64120288,-0.0414 1.6412029,-0.0414 0.2845008,-0.952135 c 0.1613221,-0.539887 0.5165348,-1.41696 0.8204203,-2.02573 L 4.9634956,8.9472332 3.9696627,7.9497853 2.9758289,6.9523292 l 0,-0.3706536 0,-0.3706618 1.7151291,-1.7187022 1.7151291,-1.7187023 0.3740955,0 0.3740946,0 1.0194982,1.0232052 1.0194985,1.0232135 0.8398401,-0.4269703 c 0.823236,-0.4185252 2.524727,-1.0398882 2.847556,-1.0398882 0.309306,0 0.344569,-0.17126 0.367813,-1.7862955 L 13.271033,0 l 2.811542,0 2.811542,0 0.04135,1.6507115 0.04135,1.6507116 0.785578,0.2265666 c 0.919852,0.2652812 1.958763,0.6985521 2.655806,1.1075892 0.629536,0.3694116 0.461143,0.4432476 1.602853,-0.7028492 l 0.989724,-0.9935317 0.38314,0 0.383141,0 1.706136,1.7394587 1.706135,1.7394588 0.0033,0.3510975 0.0033,0.3510975 -1.051255,1.0020182 -1.051256,1.0020264 0.291309,0.5306287 c 0.374139,0.6814972 0.90864,2.0221852 1.102008,2.7641632 0.218517,0.838457 0.09845,0.786545 1.81892,0.786545 1.903186,0 1.702135,-0.353838 1.675666,2.949059 l -0.02181,2.722351 -1.64026,0.0414 -1.640259,0.0414 -0.361428,1.100112 c -0.198786,0.605061 -0.574436,1.510582 -0.834778,2.012266 l -0.47335,0.912162 1.007247,1.010918 1.007247,1.010919 0,0.385026 0,0.385027 -1.753271,1.704329 -1.753271,1.704338 -0.333562,0 -0.333563,0 -1.034805,-1.030831 -1.034805,-1.030831 -0.888018,0.447661 c -0.48841,0.246214 -1.325671,0.58298 -1.860579,0.748353 -0.534908,0.165382 -1.028379,0.329289 -1.0966,0.364245 -0.100943,0.05171 -0.132129,0.347107 -0.16749,1.58648 -0.0239,0.837622 -0.07261,1.569515 -0.108246,1.626436 -0.0497,0.07938 -0.698297,0.103493 -2.783883,0.103493 -2.084463,0 -2.734703,-0.02416 -2.785988,-0.103493 z m 4.86424,-6.14424 C 24.278241,24.540622 27.813248,17.264095 24.868886,11.518734 21.341489,4.6356948 11.850052,4.1150013 7.6549117,10.57439 2.8945949,17.903996 9.3400509,27.402639 17.954097,25.752267 z"
     id="path3235"
     inkscape:connector-curvature="0" />
</svg>
